<?xml version="1.0" encoding="UTF-8"?>
<!DOCTYPE svg PUBLIC "-//W3C//DTD SVG 1.1//EN" "http://www.w3.org/Graphics/SVG/1.1/DTD/svg11.dtd">
<!-- Creator: CorelDRAW 2021 (64 Bit) -->
<svg xmlns="http://www.w3.org/2000/svg" xml:space="preserve" width="100mm" height="90mm" version="1.1" style="shape-rendering:geometricPrecision; text-rendering:geometricPrecision; image-rendering:optimizeQuality; fill-rule:evenodd; clip-rule:evenodd"
viewBox="0 0 10000 9000"
 xmlns:xlink="http://www.w3.org/1999/xlink"
 xmlns:xodm="http://www.corel.com/coreldraw/odm/2003">
 <defs>
  <style type="text/css">
   <![CDATA[
    .str1 {stroke:#373435;stroke-width:20;stroke-miterlimit:22.9256}
    .str0 {stroke:#3E4095;stroke-width:10;stroke-miterlimit:22.9256}
    .fil0 {fill:#D2D3D5}
    .fil1 {fill:#373435}
    .fil2 {fill:#718FC8;fill-rule:nonzero}
   ]]>
  </style>
 </defs>
 <g id="Camada_x0020_1">
  <metadata id="CorelCorpID_0Corel-Layer"/>
  <g id="_2037894962768">
   <polygon class="fil0 str0" points="5147.63,363.49 5580.46,1463.3 5580.52,5421.26 5147.57,6002.57 5580.34,6586.47 5580.46,7718.65 5147.51,8363.48 4694.26,7718.34 4694.56,6586.16 5147.57,6002.57 4694.26,5420.85 4694.26,1486.64 "/>
   <polygon class="fil1 str1" points="7300.17,6411.69 7300.17,6411.69 7300.17,6411.69 7300.17,6411.69 "/>
   <path class="fil0 str0" d="M5147.57 6002.55l432.79 583.94c5878.69,449.27 5437.84,605.19 1240.26,-560.01 -161.02,35.89 -328.4,73.7 -502.09,113.55l-1.91 0.44c-224.37,52.96 -458.61,109.49 -698.89,163.43l-470.11 -301.35 -0.05 -0.06 0 0.06z"/>
   <path class="fil0 str0" d="M5147.57 5996.29l433 -575.05 3783.61 -5.11c629.7,-0.82 -569.9,156.09 -3042.94,723.24 172.89,-40.78 339.9,-79.31 499.27,-112.89 -367.73,-106.42 -756.89,-206.42 -1184.22,-336.27l-483.95 309.21 -4.77 -3.13z"/>
   <path class="fil2" d="M5770.78 4219.02c22.16,0 33.24,11.47 33.24,34.46l0 1107.64c0,22.99 -11.08,34.52 -33.24,34.52l-148.13 0c-22.11,0 -33.19,-11.53 -33.19,-34.52l0 -1107.64c0,-22.99 11.08,-34.46 33.19,-34.46l148.13 0zm994.31 315.3c51.37,0 93.95,4.44 127.72,13.33 33.72,8.89 60.39,23.55 80.06,43.96 19.62,20.36 33.45,47.04 41.57,80.02 8.05,32.93 12.08,72.94 12.08,119.97l0 149.06c0,33.48 -7.05,56.75 -21.2,69.81 -14.05,13.07 -35.74,19.6 -64.95,19.6l-763.1 0 0 37.7c0,49.12 11.35,84.68 33.99,106.64 22.64,22 66.75,32.98 132.23,32.98l630.12 0c18.13,0 27.25,9.39 27.25,28.21l0 131.77c0,18.83 -9.12,28.27 -27.25,28.27l-651.33 0c-68.45,0 -125.65,-5.77 -171.46,-17.24 -45.81,-11.52 -82.6,-30.07 -110.33,-55.7 -27.68,-25.63 -47.56,-58.56 -59.7,-98.84 -12.09,-40.29 -18.08,-88.64 -18.08,-145.11l0 -225.95c0,-56.48 5.99,-104.83 18.08,-145.11 12.14,-40.28 32.02,-73.21 59.7,-98.84 27.73,-25.63 64.52,-44.46 110.33,-56.48 45.81,-12.02 103.01,-18.05 171.46,-18.05l442.81 0zm-587.82 356.13l612.05 0c17.12,0 25.66,-8.89 25.66,-26.68l0 -65.85c0,-32.44 -6.57,-55.44 -19.67,-69.05 -13.09,-13.61 -37.27,-20.41 -72.53,-20.41l-379.29 0c-65.48,0 -109.59,10.75 -132.23,32.16 -22.64,21.46 -33.99,57.3 -33.99,107.46l0 42.37zm1789.17 -356.13c18.13,0 27.14,9.44 27.14,28.26l0 131.77c0,18.83 -9.01,28.27 -27.14,28.27l-401.99 0c-32.24,0 -58.9,2.85 -80.06,8.61 -21.15,5.77 -38.07,15.15 -50.63,28.21 -12.62,13.12 -21.42,30.9 -26.46,53.35 -5.03,22.5 -7.53,49.94 -7.53,82.38l0 465.95c0,22.99 -11.13,34.52 -33.29,34.52l-148.03 0c-23.22,0 -34.78,-11.53 -34.78,-34.52l0 -508.32c0,-56.48 6.05,-104.83 18.13,-145.11 12.09,-40.28 31.97,-73.21 59.65,-98.84 27.73,-25.63 64.52,-44.46 110.33,-56.48 45.86,-12.02 103.02,-18.05 171.57,-18.05l423.09 0zm1030.57 -236.87c76.5,0 141.77,7.57 195.69,22.72 53.92,15.2 97.71,39.24 131.43,72.17 33.78,32.98 58.22,75.57 73.27,127.87 15.17,52.3 22.7,116.08 22.7,191.43l0 269.8c0,75.3 -7.53,139.4 -22.7,192.2 -15.05,52.79 -39.49,95.71 -73.27,128.64 -33.72,32.93 -77.51,56.75 -131.43,71.4 -53.92,14.66 -119.19,21.96 -195.69,21.96l-466.93 0c-76.56,0 -141.51,-7.3 -195.01,-21.96 -53.39,-14.65 -96.91,-38.47 -130.63,-71.4 -33.78,-32.93 -58.48,-75.85 -74.07,-128.64 -15.59,-52.8 -23.44,-116.9 -23.44,-192.2l0 -269.8c0,-75.35 7.85,-139.13 23.44,-191.43 15.59,-52.3 40.29,-94.89 74.07,-127.87 33.72,-32.93 77.24,-56.97 130.63,-72.17 53.5,-15.15 118.45,-22.72 195.01,-22.72l466.93 0zm-658.86 666.76c0,40.78 3.29,75.02 9.81,102.74 6.52,27.71 17.39,49.67 32.5,65.91 15.11,16.19 35.52,27.72 61.23,34.52 25.66,6.81 58.11,10.21 97.45,10.21l448.8 0c39.29,0 71.74,-3.4 97.45,-10.21 25.66,-6.8 46.07,-18.33 61.18,-34.52 15.17,-16.24 25.98,-38.2 32.56,-65.91 6.52,-27.72 9.81,-61.96 9.81,-102.74l0 -235.34c0,-40.77 -3.29,-75.02 -9.81,-102.74 -6.58,-27.71 -17.39,-49.72 -32.56,-65.91 -15.11,-16.19 -35.52,-27.71 -61.18,-34.52 -25.71,-6.81 -58.16,-10.21 -97.45,-10.21l-448.8 0c-39.34,0 -71.79,3.4 -97.45,10.21 -25.71,6.81 -46.12,18.33 -61.23,34.52 -15.11,16.19 -25.98,38.2 -32.5,65.91 -6.52,27.72 -9.81,61.97 -9.81,102.74l0 235.34z"/>
   <path class="fil0 str0" d="M5147.46 6002.6l-452.88 583.56c-6275.75,448.99 -5817.3,605.52 -1342.32,-557.33l0.1 0 17.34 3.68 1.11 0.22 16.38 3.46 2.28 0.44 15.43 3.29 3.24 0.66 14.63 3.13 4.14 0.82c304.85,64.49 685.26,146.43 1037.35,224.52l10.34 2.25 10.45 2.36 11.08 2.42 9.6 2.19 11.98 2.64 8.64 1.92 12.99 2.91 7.58 1.7 14.1 3.13 6.37 1.42 15.37 3.41 4.98 1.15 16.81 3.73 3.5 0.83 18.35 4.06 1.8 0.44 20.09 4.5 499.17 -307.51z"/>
   <path class="fil0 str0" d="M5147.62 6002.49l-453.41 -581.64 -4024.74 1.48c-620.27,0.17 431.09,134.52 2682.89,606.5 367.68,-106.41 845.27,-208.44 1272.6,-338.29l522.61 312.01 0.05 -0.06z"/>
   <path class="fil2" d="M1474.55 4257.24c19.04,0 28.53,11.85 28.53,35.67l0 159c0,24.86 -9.49,37.32 -28.53,37.32l-576.57 0c-33.67,0 -61.56,3.51 -83.56,10.53 -22.06,7.03 -39.55,18.94 -52.49,35.68 -12.99,16.79 -22.27,39.18 -27.89,67.34 -5.62,28.1 -8.43,63.77 -8.43,107.07l0 230.34c0,43.25 2.81,79.25 8.43,107.9 5.62,28.65 14.9,51.37 27.89,68.11 12.94,16.79 30.43,28.65 52.49,35.67 22,7.08 49.89,10.6 83.56,10.6l576.57 0c19.04,0 28.53,11.85 28.53,35.67l0 158.99c0,23.77 -9.49,35.68 -28.53,35.68l-584.37 0c-65.63,0 -121.36,-7.58 -167.11,-22.73 -45.81,-15.14 -83.19,-39.73 -112.14,-73.81 -28.89,-34.03 -50.1,-78.37 -63.46,-133.04 -13.41,-54.6 -20.09,-120.85 -20.09,-198.72l0 -279.03c0,-77.87 6.68,-143.84 20.09,-197.9 13.36,-54.06 34.57,-98.13 63.46,-132.21 28.95,-34.08 66.33,-58.94 112.14,-74.64 45.75,-15.64 101.48,-23.49 167.11,-23.49l584.37 0zm826.67 244.94c57.89,0 106.72,6.2 146.49,18.66 39.71,12.46 71.41,31.89 95.16,58.39 23.81,26.51 40.83,60.59 51.22,102.19 10.34,41.66 15.53,91.66 15.53,150.11l0 233.57c0,58.4 -5.19,108.45 -15.53,150.05 -10.39,41.66 -27.41,75.74 -51.22,102.25 -23.75,26.45 -55.45,45.66 -95.16,57.57 -39.77,11.91 -88.6,17.84 -146.49,17.84l-366.68 0c-58.74,0 -107.73,-5.93 -147.07,-17.84 -39.29,-11.91 -70.84,-31.12 -94.59,-57.57 -23.7,-26.51 -40.82,-60.59 -51.16,-102.25 -10.39,-41.6 -15.59,-91.65 -15.59,-150.05l0 -233.57c0,-58.45 5.2,-108.45 15.59,-150.11 10.34,-41.6 27.46,-75.68 51.16,-102.19 23.75,-26.5 55.3,-45.93 94.59,-58.39 39.34,-12.46 88.33,-18.66 147.07,-18.66l366.68 0zm-489.79 522.37c0,34.63 2.17,63.28 6.52,86 4.3,22.72 11.88,40.83 22.64,54.33 10.82,13.5 25.29,23.27 43.42,29.2 18.14,5.92 41.04,8.94 68.66,8.94l330.47 0c28.47,0 51.8,-3.02 69.93,-8.94 18.18,-5.93 32.66,-15.7 43.42,-29.2 10.76,-13.5 18.34,-31.61 22.64,-54.33 4.35,-22.72 6.52,-51.37 6.52,-86l0 -154.11c0,-33.54 -2.17,-61.63 -6.52,-84.36 -4.3,-22.72 -11.88,-41.1 -22.64,-55.15 -10.76,-14.05 -25.24,-23.82 -43.42,-29.2 -18.13,-5.43 -41.46,-8.12 -69.93,-8.12l-330.47 0c-27.62,0 -50.52,2.69 -68.66,8.12 -18.13,5.38 -32.6,15.15 -43.42,29.2 -10.76,14.05 -18.34,32.43 -22.64,55.15 -4.35,22.73 -6.52,50.82 -6.52,84.36l0 154.11zm1021.08 -522.37c14.69,0 25.08,7.57 31.07,22.72l304.54 670c3.5,6.48 8.22,9.71 14.26,9.71l5.2 0c6.04,0 10.81,-3.23 14.21,-9.71l305.81 -670c3.44,-7.57 7.37,-13.23 11.66,-17.01 4.35,-3.79 10.82,-5.71 19.46,-5.71l143.84 0c9.49,0 15.75,4.06 18.77,12.18 3.02,8.13 2.38,17.56 -1.96,28.38l-355.02 777.07c-12.08,27 -25.92,45.94 -41.46,56.75 -15.58,10.81 -38.01,16.25 -67.38,16.25l-106.25 0c-28.53,0 -50.53,-5.44 -66.06,-16.25 -15.59,-10.81 -29.37,-29.75 -41.46,-56.75l-355.07 -777.07c-4.29,-10.82 -4.98,-20.25 -1.96,-28.38 3.02,-8.12 9.28,-12.18 18.82,-12.18l148.98 0zm1541.94 0c57.9,0 106.73,6.2 146.49,18.66 39.71,12.46 71.42,31.89 95.17,58.39 23.75,26.51 40.82,60.59 51.21,102.19 10.34,41.66 15.54,91.66 15.54,150.11l0 431.48c0,25.96 -1.49,47.31 -4.51,64.1 -3.02,16.74 -8.22,30.02 -15.59,39.74 -7.31,9.71 -17.07,16.52 -29.16,20.3 -12.08,3.79 -27.62,5.66 -46.6,5.66l-616.82 0c-38.01,0 -69.71,-4.61 -95.22,-13.78 -25.5,-9.22 -46.02,-23 -61.55,-41.38 -15.54,-18.39 -26.56,-42.21 -33.03,-71.4 -6.47,-29.2 -9.7,-63.78 -9.7,-103.78l0 -77.88c0,-33.54 3.23,-63.56 9.7,-90.06 6.47,-26.51 17.49,-48.9 33.03,-67.29 15.53,-18.38 36.05,-32.22 61.55,-41.38 25.51,-9.22 57.21,-13.78 95.22,-13.78l527.43 0 0 -30.84c0,-25.96 -2.22,-48.13 -6.52,-66.52 -4.35,-18.38 -11.66,-33.26 -22.05,-44.62 -10.34,-11.36 -24.55,-19.7 -42.74,-25.13 -18.13,-5.44 -41.46,-8.12 -69.93,-8.12l-541.64 0c-15.58,0 -23.32,-9.72 -23.32,-29.2l0 -136.27c0,-19.49 7.74,-29.2 23.32,-29.2l559.72 0zm85.52 712.2c13.89,0 23.54,-4.06 29.16,-12.18 5.62,-8.12 8.48,-22.45 8.48,-42.97l0 -142.81 -474.3 0c-26.78,0 -45.54,6.75 -56.36,20.31 -10.76,13.5 -16.17,33.26 -16.17,59.22l0 34.03c0,29.25 5.41,50.6 16.17,64.1 10.82,13.5 29.58,20.3 56.36,20.3l436.66 0z"/>
  </g>
 </g>
</svg>
